<svg version="1.1" xmlns="http://www.w3.org/2000/svg" xmlns:xlink="http://www.w3.org/1999/xlink" style="display:6994C6 none;">
    <symbol viewBox="0 0 306 83" fill="currentColor" id="hi-light">
        <g clip-path="url(#clip0_1069_430)">
            <path d="M0.338379 47.001H10.4288V28.4516H29.0368V47.001H39.1274V0.79234H29.0368V19.0779H10.4288V0.79234H0.338379V47.001ZM53.6232 47.001H63.7138V0.79234H53.6232V47.001ZM86.8128 47.001H119.77V37.7592H96.903V0.79234H86.8128V47.001ZM133.727 47.001H143.817V0.79234H133.727V47.001ZM180.394 47.7933C188.781 47.7933 195.267 44.4926 199.985 40.466V20.398L180.066 29.1776H190.222V35.7789C187.667 37.6272 184.39 38.5514 180.721 38.5514C172.597 38.5514 166.831 32.3462 166.831 23.8966C166.831 15.9091 172.662 9.37395 180.001 9.37395C185.308 9.37395 188.453 11.09 191.991 14.0606L198.347 6.33736C193.564 2.24445 188.584 0 180.328 0C166.438 0 156.281 10.7603 156.281 23.8966C156.281 37.6934 166.11 47.7931 180.393 47.7931L180.394 47.7933ZM215.579 47.001H225.669V28.4516H244.278V47.001H254.368V0.79234H244.278V19.0779H225.669V0.79234H215.579V47.001ZM281.953 47.001H292.044V10.1659H306V0.79234H267.997V10.1659H281.953V47.001Z" fill="white" />
            <path fill-rule="evenodd" clip-rule="evenodd" d="M75.2632 19.5627C77.6391 19.5627 79.5649 21.5028 79.5649 23.8966C79.5649 26.2903 77.6391 28.2303 75.2632 28.2303C72.8873 28.2303 70.9615 26.2903 70.9615 23.8966C70.9615 21.5028 72.8873 19.5627 75.2632 19.5627Z" fill="#E31E24" />
            <path d="M85.5151 76.0053H78.2643V61.4028H93.8298V65.9261H85.5151V76.0053ZM220.872 70.6461C220.182 70.8758 219.342 71.0808 218.353 71.2608C217.363 71.4413 216.215 71.5311 214.909 71.5311C213.341 71.5311 212.021 71.3099 210.948 70.8673C209.874 70.4249 209.063 69.8063 208.512 69.0115C207.961 68.2164 207.686 67.27 207.686 66.1717V61.4026H215.553V65.7539C215.553 66.1638 215.609 66.5158 215.721 66.811C215.833 67.1059 216.061 67.3358 216.407 67.4994C216.752 67.6633 217.27 67.7452 217.961 67.7452C218.409 67.7452 218.917 67.696 219.486 67.5977C220.055 67.4994 220.517 67.385 220.872 67.2536V61.4026H228.739V76.0051H220.872V70.6459V70.6461ZM206.175 76.0053H199.54L199.568 69.2451L199.736 68.3353L199.624 68.3105L199.176 69.0972L191.869 76.0053H185.206V61.4028H191.813V68.1878L191.673 69.0728L191.757 69.0974L192.205 68.3355L199.456 61.403H206.175V76.0055L206.175 76.0053ZM163.062 76.0053V61.4028H176.556C177.9 61.4028 179.118 61.5054 180.209 61.7099C181.301 61.9151 182.183 62.2797 182.855 62.804C183.527 63.3289 183.863 64.0498 183.863 64.9675V65.0167C183.863 65.869 183.494 66.5861 182.757 67.1677C182.02 67.7496 180.914 68.0978 179.44 68.2126V68.2615C181.138 68.4421 182.435 68.8392 183.331 69.4539C184.227 70.0686 184.675 70.9004 184.675 71.9492C184.675 72.9817 184.362 73.7891 183.737 74.3705C183.112 74.9527 182.197 75.3707 180.994 75.6244C179.79 75.8786 178.292 76.0053 176.5 76.0053H163.063H163.062ZM174.96 67.2044C175.501 67.2044 175.917 67.1185 176.206 66.9463C176.495 66.7742 176.64 66.5493 176.64 66.2704V66.2456C176.64 66.0492 176.574 65.8768 176.444 65.7297C176.313 65.5818 176.122 65.4674 175.87 65.3852C175.618 65.3037 175.286 65.2625 174.876 65.2625H170.761V67.2044H174.96H174.96ZM175.324 72.0721C175.678 72.0721 175.996 72.0351 176.276 71.9616C176.556 71.8878 176.775 71.7734 176.934 71.6175C177.092 71.4619 177.172 71.253 177.172 70.9904V70.9658C177.172 70.6546 177.004 70.4088 176.668 70.2284C176.332 70.0481 175.846 69.9579 175.212 69.9579H170.761V72.0721H175.324ZM140.47 61.4028H148.281V76.0053H140.47V61.4028ZM147.245 66.1228H154.412V70.5967H147.245V66.1228ZM153.236 61.4028H161.103V76.0053H153.236V61.4028ZM138.595 76.0053H131.96L131.988 69.2451L132.156 68.3353L132.044 68.3105L131.596 69.0972L124.289 76.0053H117.626V61.4028H124.233V68.1878L124.093 69.0728L124.177 69.0974L124.624 68.3355L131.876 61.403H138.595V76.0055L138.595 76.0053ZM108.976 60.8864C110.599 60.8864 111.975 61.1856 113.105 61.7839C114.234 62.3825 115.092 63.2509 115.68 64.3896C116.268 65.5288 116.562 66.918 116.562 68.5565V68.9252C116.562 70.4988 116.263 71.8549 115.666 72.9937C115.069 74.1331 114.206 75.0016 113.077 75.5999C111.947 76.1979 110.58 76.4973 108.976 76.4973C107.464 76.4973 106.152 76.1979 105.042 75.5999C103.931 75.0016 103.087 74.1123 102.508 72.9325L102.984 72.6867L102.9 73.3014H102.62L102.76 75.0222V80.4307H94.9218V61.4028H102.788V62.4599L102.621 64.0825H102.9L102.733 64.451H102.508C102.9 63.6811 103.419 63.0211 104.062 62.4719C104.706 61.9232 105.453 61.5218 106.302 61.2673C107.151 61.0136 108.042 60.8862 108.976 60.8862L108.976 60.8864ZM105.728 65.4837C105.112 65.4837 104.571 65.6029 104.104 65.84C103.638 66.0779 103.292 66.4053 103.069 66.8234C102.845 67.2414 102.732 67.7129 102.732 68.237V69.122C102.732 69.6958 102.845 70.1835 103.069 70.5847C103.292 70.9863 103.624 71.3062 104.062 71.5437C104.501 71.7812 105.056 71.9 105.728 71.9C106.4 71.9 106.946 71.781 107.366 71.5437C107.786 71.3061 108.108 70.978 108.332 70.56C108.556 70.1421 108.668 69.6384 108.668 69.0483V68.3107C108.668 67.7539 108.56 67.2621 108.346 66.8357C108.131 66.4096 107.8 66.0779 107.352 65.84C106.904 65.6027 106.363 65.4837 105.728 65.4837H105.728Z" fill="white" />
            <path d="M47.9471 60.7566C49.963 60.7566 51.6379 61.5119 52.9701 63.0221C53.6315 63.7717 54.1284 64.6244 54.4594 65.5793C54.7889 66.5286 54.9537 67.5756 54.9537 68.7185C54.9537 69.8692 54.79 70.9209 54.4629 71.8727C54.134 72.8296 53.6407 73.6813 52.9833 74.427C52.3227 75.1774 51.5687 75.7404 50.7223 76.1166C49.8767 76.4924 48.9427 76.6804 47.9209 76.6804C45.9644 76.6804 44.3902 75.9875 43.1986 74.6018V76.0208C43.1986 76.2089 43.0472 76.3614 42.8605 76.3614H39.8822C39.6954 76.3614 39.5441 76.2089 39.5441 76.0208V55.574C39.5441 55.3859 39.6954 55.2334 39.8822 55.2334H42.8605C43.0472 55.2334 43.1986 55.3859 43.1986 55.574V62.8748C43.6844 62.3016 44.2357 61.8442 44.8523 61.5028C45.7512 61.0054 46.7831 60.7567 47.9473 60.7567L47.9471 60.7566ZM52.4654 63.4744C51.2677 62.1169 49.7614 61.438 47.9471 61.438C46.8972 61.438 45.9738 61.6584 45.1774 62.0991C44.3865 62.5365 43.7134 63.1945 43.1594 64.0713C43.1027 64.1793 42.9899 64.2528 42.8603 64.2528C42.6736 64.2528 42.5222 64.1003 42.5222 63.9122V55.9148H40.2203V75.6802H42.5222V73.578C42.5231 73.4661 42.5779 73.3568 42.678 73.2919C42.8345 73.1905 43.0435 73.2366 43.1442 73.3943C44.2541 75.1305 45.8468 75.9989 47.9207 75.9989C48.849 75.9989 49.6923 75.8306 50.4499 75.4938C51.2066 75.1576 51.883 74.6515 52.4787 73.9759C53.0775 73.2974 53.5268 72.5224 53.8259 71.6519C54.1267 70.7765 54.2771 69.7984 54.2771 68.7185C54.2771 67.6488 54.1255 66.6765 53.8224 65.803C53.5214 64.9348 53.0686 64.1582 52.4654 63.4746V63.4744ZM47.2882 73.1307C47.8773 73.1307 48.4094 73.0293 48.8837 72.8267C49.3559 72.6252 49.7783 72.3204 50.1501 71.9134C50.5227 71.5052 50.8028 71.037 50.9891 70.51C51.178 69.9755 51.2725 69.3782 51.2725 68.7181C51.2725 67.4076 50.8983 66.3422 50.1501 65.5228C49.7783 65.1156 49.3557 64.811 48.8837 64.6095C48.4093 64.407 47.8771 64.3056 47.2882 64.3056C46.1018 64.3056 45.1199 64.7173 44.3435 65.54C43.9531 65.954 43.6604 66.4235 43.466 66.9476C43.2702 67.4758 43.1721 68.066 43.1721 68.7179C43.1721 69.3786 43.2702 69.9747 43.466 70.5048C43.6602 71.031 43.9526 71.4992 44.3421 71.9079C44.7315 72.3167 45.1703 72.6229 45.657 72.8255C46.1457 73.0287 46.6896 73.1307 47.2882 73.1307ZM49.1454 73.4522C48.5837 73.6922 47.9642 73.8122 47.2882 73.8122C46.6043 73.8122 45.9748 73.6924 45.401 73.4537C44.8251 73.2139 44.3097 72.8557 43.8559 72.3794C43.4024 71.9037 43.0616 71.3573 42.8345 70.7419C42.6088 70.1309 42.4959 69.456 42.4959 68.7183C42.4959 67.9896 42.609 67.32 42.8345 66.7113C43.0618 66.0986 43.4018 65.5518 43.8546 65.0718C44.7649 64.1073 45.91 63.6246 47.2882 63.6246C47.9642 63.6246 48.5835 63.7448 49.1454 63.9844C49.7098 64.2253 50.2106 64.5849 50.6466 65.0626C51.5147 66.0132 51.9489 67.2325 51.9489 68.7183C51.9489 69.4564 51.8411 70.1303 51.626 70.738C51.4081 71.3519 51.0817 71.8977 50.6464 72.374C50.2104 72.8516 49.7094 73.2114 49.1452 73.4522H49.1454ZM67.3195 61.0761L70.5087 61.0753C70.6955 61.0753 70.8468 61.2278 70.8468 61.4159C70.8468 61.4674 70.8355 61.5164 70.8149 61.5603L61.2227 82.8004C61.1654 82.9275 61.0398 83.0021 60.9091 83.0001H57.7255C57.5388 83.0001 57.3874 82.8476 57.3874 82.6595C57.3874 82.603 57.4012 82.5494 57.4254 82.5025L61.1766 74.1619L55.52 61.5561C55.4435 61.385 55.5192 61.1831 55.689 61.1061C55.7342 61.0856 55.7813 61.0759 55.8279 61.0759L59.0172 61.0755C59.1655 61.0755 59.2915 61.1719 59.3372 61.3058L63.1323 70.0796L67.0119 61.2791C67.0675 61.1525 67.1908 61.0772 67.3199 61.0763L67.3195 61.0761ZM69.9831 61.7568H67.5375L63.4435 71.0438C63.4122 71.1259 63.3498 71.1957 63.2635 71.2337C63.0929 71.3086 62.8941 71.23 62.8198 71.0581L58.7966 61.7568H56.3514L61.8552 74.022C61.8935 74.1079 61.8965 74.2093 61.8552 74.3016L58.2497 82.3185H60.6973L69.9833 61.7566L69.9831 61.7568Z" fill="white" />
        </g>
        <defs>
            <clipPath id="clip0_1069_430">
            <rect width="306" height="83" fill="white" />
            </clipPath>
        </defs>
    </symbol>
    <symbol viewBox="0 0 328 50" fill="currentColor" id="grinvich">
        <g filter="url(#filter0_d_1069_438)">
            <mask id="path-1-inside-1_1069_438" fill="white">
            <path d="M19.4196 32.4901H4V1.11003H37.1015V10.8304H19.4196V32.4901ZM307.271 20.9734C305.802 21.4671 304.016 21.9075 301.912 22.2943C299.808 22.6823 297.367 22.8753 294.59 22.8753C291.255 22.8753 288.447 22.3999 286.165 21.4488C283.883 20.498 282.156 19.1688 280.986 17.4607C279.814 15.7522 279.23 13.7184 279.23 11.3582V1.10962H295.958V10.4603C295.958 11.3412 296.078 12.0977 296.315 12.7319C296.554 13.3658 297.039 13.8598 297.774 14.2113C298.508 14.5635 299.61 14.7395 301.079 14.7395C302.031 14.7395 303.112 14.6338 304.324 14.4226C305.534 14.2113 306.516 13.9655 307.271 13.6831V1.10962H324V32.4896H307.271V20.973V20.9734ZM276.015 32.4901H261.906L261.965 17.9627L262.322 16.0076L262.084 15.9543L261.132 17.6449L245.593 32.4901H231.423V1.11003H245.474V15.6906L245.175 17.5925L245.354 17.6454L246.307 16.008L261.726 1.11045H276.015V32.4905L276.015 32.4901ZM184.331 32.4901V1.11003H213.027C215.885 1.11003 218.475 1.33046 220.797 1.77007C223.119 2.21092 224.994 2.99448 226.423 4.12115C227.852 5.24907 228.566 6.7983 228.566 8.77049V8.87612C228.566 10.7077 227.782 12.2487 226.215 13.4984C224.647 14.749 222.295 15.4972 219.16 15.7439V15.8491C222.771 16.2371 225.531 17.0905 227.435 18.4114C229.341 19.7323 230.294 21.5199 230.294 23.7736C230.294 25.9925 229.628 27.7276 228.299 28.977C226.969 30.228 225.024 31.1263 222.465 31.6716C219.905 32.2176 216.719 32.4901 212.909 32.4901H184.332H184.331ZM209.633 13.5774C210.784 13.5774 211.668 13.3928 212.283 13.0226C212.898 12.6529 213.206 12.1696 213.206 11.5703V11.5171C213.206 11.0949 213.066 10.7244 212.788 10.4083C212.511 10.0905 212.104 9.84475 211.568 9.66799C211.033 9.4929 210.328 9.40432 209.455 9.40432H200.703V13.5774H209.633H209.633ZM210.408 24.0377C211.161 24.0377 211.837 23.9583 212.431 23.8003C213.027 23.6418 213.493 23.396 213.831 23.0608C214.167 22.7264 214.337 22.2776 214.337 21.7133V21.6605C214.337 20.9917 213.98 20.4635 213.266 20.0759C212.551 19.6883 211.518 19.4944 210.169 19.4944H200.703V24.0377H210.408ZM136.287 1.11003H152.897V32.4901H136.287V1.11003ZM150.695 11.253H165.936V20.8673H150.695V11.253ZM163.436 1.11003H180.165V32.4901H163.436V1.11003ZM132.299 32.4901H118.189L118.249 17.9627L118.606 16.0076L118.367 15.9543L117.415 17.6449L101.876 32.4901H87.7072V1.11003H101.757V15.6906L101.459 17.5925L101.638 17.6454L102.59 16.008L118.01 1.11045H132.299V32.4905L132.299 32.4901ZM69.3108 0.000416305C72.7636 0.000416305 75.6902 0.643402 78.0919 1.92895C80.4928 3.21532 82.3184 5.08146 83.5693 7.52861C84.8194 9.97659 85.444 12.9619 85.444 16.4829V17.2752C85.444 20.6569 84.8088 23.5711 83.5395 26.0182C82.2686 28.4666 80.4331 30.3332 78.0318 31.6187C75.6306 32.9039 72.7231 33.5473 69.3108 33.5473C66.0957 33.5473 63.3064 32.9039 60.9455 31.6187C58.5839 30.3332 56.7872 28.4221 55.5572 25.8868L56.5699 25.3586L56.391 26.6795H55.7957L56.0931 30.3773V42H39.4239V1.11003H56.1532V3.38168L55.7961 6.86857H56.3914L56.0343 7.66045H55.5576C56.3914 6.006 57.4931 4.58778 58.8621 3.40746C60.2318 2.22839 61.8189 1.36581 63.625 0.818903C65.4307 0.273659 67.3258 0 69.3112 0L69.3108 0.000416305ZM62.4035 9.87969C61.0946 9.87969 59.943 10.1359 58.9515 10.6454C57.9593 11.1565 57.2243 11.8602 56.7488 12.7585C56.2725 13.6569 56.0339 14.67 56.0339 15.7963V17.6982C56.0339 18.9313 56.2725 19.9794 56.7488 20.8416C57.2247 21.7045 57.9294 22.392 58.8621 22.9023C59.7943 23.4126 60.9758 23.668 62.4039 23.668C63.8334 23.668 64.9948 23.4122 65.8878 22.9023C66.7804 22.3916 67.4655 21.6867 67.9414 20.7883C68.4182 19.8904 68.6563 18.8078 68.6563 17.5397V15.9547C68.6563 14.7582 68.4276 13.7014 67.9717 12.7852C67.5141 11.8693 66.8102 11.1565 65.858 10.6454C64.9053 10.1355 63.7537 9.87969 62.4039 9.87969H62.4035Z" />
            </mask>
            <path d="M19.4196 32.4901H4V1.11003H37.1015V10.8304H19.4196V32.4901ZM307.271 20.9734C305.802 21.4671 304.016 21.9075 301.912 22.2943C299.808 22.6823 297.367 22.8753 294.59 22.8753C291.255 22.8753 288.447 22.3999 286.165 21.4488C283.883 20.498 282.156 19.1688 280.986 17.4607C279.814 15.7522 279.23 13.7184 279.23 11.3582V1.10962H295.958V10.4603C295.958 11.3412 296.078 12.0977 296.315 12.7319C296.554 13.3658 297.039 13.8598 297.774 14.2113C298.508 14.5635 299.61 14.7395 301.079 14.7395C302.031 14.7395 303.112 14.6338 304.324 14.4226C305.534 14.2113 306.516 13.9655 307.271 13.6831V1.10962H324V32.4896H307.271V20.973V20.9734ZM276.015 32.4901H261.906L261.965 17.9627L262.322 16.0076L262.084 15.9543L261.132 17.6449L245.593 32.4901H231.423V1.11003H245.474V15.6906L245.175 17.5925L245.354 17.6454L246.307 16.008L261.726 1.11045H276.015V32.4905L276.015 32.4901ZM184.331 32.4901V1.11003H213.027C215.885 1.11003 218.475 1.33046 220.797 1.77007C223.119 2.21092 224.994 2.99448 226.423 4.12115C227.852 5.24907 228.566 6.7983 228.566 8.77049V8.87612C228.566 10.7077 227.782 12.2487 226.215 13.4984C224.647 14.749 222.295 15.4972 219.16 15.7439V15.8491C222.771 16.2371 225.531 17.0905 227.435 18.4114C229.341 19.7323 230.294 21.5199 230.294 23.7736C230.294 25.9925 229.628 27.7276 228.299 28.977C226.969 30.228 225.024 31.1263 222.465 31.6716C219.905 32.2176 216.719 32.4901 212.909 32.4901H184.332H184.331ZM209.633 13.5774C210.784 13.5774 211.668 13.3928 212.283 13.0226C212.898 12.6529 213.206 12.1696 213.206 11.5703V11.5171C213.206 11.0949 213.066 10.7244 212.788 10.4083C212.511 10.0905 212.104 9.84475 211.568 9.66799C211.033 9.4929 210.328 9.40432 209.455 9.40432H200.703V13.5774H209.633H209.633ZM210.408 24.0377C211.161 24.0377 211.837 23.9583 212.431 23.8003C213.027 23.6418 213.493 23.396 213.831 23.0608C214.167 22.7264 214.337 22.2776 214.337 21.7133V21.6605C214.337 20.9917 213.98 20.4635 213.266 20.0759C212.551 19.6883 211.518 19.4944 210.169 19.4944H200.703V24.0377H210.408ZM136.287 1.11003H152.897V32.4901H136.287V1.11003ZM150.695 11.253H165.936V20.8673H150.695V11.253ZM163.436 1.11003H180.165V32.4901H163.436V1.11003ZM132.299 32.4901H118.189L118.249 17.9627L118.606 16.0076L118.367 15.9543L117.415 17.6449L101.876 32.4901H87.7072V1.11003H101.757V15.6906L101.459 17.5925L101.638 17.6454L102.59 16.008L118.01 1.11045H132.299V32.4905L132.299 32.4901ZM69.3108 0.000416305C72.7636 0.000416305 75.6902 0.643402 78.0919 1.92895C80.4928 3.21532 82.3184 5.08146 83.5693 7.52861C84.8194 9.97659 85.444 12.9619 85.444 16.4829V17.2752C85.444 20.6569 84.8088 23.5711 83.5395 26.0182C82.2686 28.4666 80.4331 30.3332 78.0318 31.6187C75.6306 32.9039 72.7231 33.5473 69.3108 33.5473C66.0957 33.5473 63.3064 32.9039 60.9455 31.6187C58.5839 30.3332 56.7872 28.4221 55.5572 25.8868L56.5699 25.3586L56.391 26.6795H55.7957L56.0931 30.3773V42H39.4239V1.11003H56.1532V3.38168L55.7961 6.86857H56.3914L56.0343 7.66045H55.5576C56.3914 6.006 57.4931 4.58778 58.8621 3.40746C60.2318 2.22839 61.8189 1.36581 63.625 0.818903C65.4307 0.273659 67.3258 0 69.3112 0L69.3108 0.000416305ZM62.4035 9.87969C61.0946 9.87969 59.943 10.1359 58.9515 10.6454C57.9593 11.1565 57.2243 11.8602 56.7488 12.7585C56.2725 13.6569 56.0339 14.67 56.0339 15.7963V17.6982C56.0339 18.9313 56.2725 19.9794 56.7488 20.8416C57.2247 21.7045 57.9294 22.392 58.8621 22.9023C59.7943 23.4126 60.9758 23.668 62.4039 23.668C63.8334 23.668 64.9948 23.4122 65.8878 22.9023C66.7804 22.3916 67.4655 21.6867 67.9414 20.7883C68.4182 19.8904 68.6563 18.8078 68.6563 17.5397V15.9547C68.6563 14.7582 68.4276 13.7014 67.9717 12.7852C67.5141 11.8693 66.8102 11.1565 65.858 10.6454C64.9053 10.1355 63.7537 9.87969 62.4039 9.87969H62.4035Z" fill="#202020" />
            <path d="M19.4196 32.4901H4V1.11003H37.1015V10.8304H19.4196V32.4901ZM307.271 20.9734C305.802 21.4671 304.016 21.9075 301.912 22.2943C299.808 22.6823 297.367 22.8753 294.59 22.8753C291.255 22.8753 288.447 22.3999 286.165 21.4488C283.883 20.498 282.156 19.1688 280.986 17.4607C279.814 15.7522 279.23 13.7184 279.23 11.3582V1.10962H295.958V10.4603C295.958 11.3412 296.078 12.0977 296.315 12.7319C296.554 13.3658 297.039 13.8598 297.774 14.2113C298.508 14.5635 299.61 14.7395 301.079 14.7395C302.031 14.7395 303.112 14.6338 304.324 14.4226C305.534 14.2113 306.516 13.9655 307.271 13.6831V1.10962H324V32.4896H307.271V20.973V20.9734ZM276.015 32.4901H261.906L261.965 17.9627L262.322 16.0076L262.084 15.9543L261.132 17.6449L245.593 32.4901H231.423V1.11003H245.474V15.6906L245.175 17.5925L245.354 17.6454L246.307 16.008L261.726 1.11045H276.015V32.4905L276.015 32.4901ZM184.331 32.4901V1.11003H213.027C215.885 1.11003 218.475 1.33046 220.797 1.77007C223.119 2.21092 224.994 2.99448 226.423 4.12115C227.852 5.24907 228.566 6.7983 228.566 8.77049V8.87612C228.566 10.7077 227.782 12.2487 226.215 13.4984C224.647 14.749 222.295 15.4972 219.16 15.7439V15.8491C222.771 16.2371 225.531 17.0905 227.435 18.4114C229.341 19.7323 230.294 21.5199 230.294 23.7736C230.294 25.9925 229.628 27.7276 228.299 28.977C226.969 30.228 225.024 31.1263 222.465 31.6716C219.905 32.2176 216.719 32.4901 212.909 32.4901H184.332H184.331ZM209.633 13.5774C210.784 13.5774 211.668 13.3928 212.283 13.0226C212.898 12.6529 213.206 12.1696 213.206 11.5703V11.5171C213.206 11.0949 213.066 10.7244 212.788 10.4083C212.511 10.0905 212.104 9.84475 211.568 9.66799C211.033 9.4929 210.328 9.40432 209.455 9.40432H200.703V13.5774H209.633H209.633ZM210.408 24.0377C211.161 24.0377 211.837 23.9583 212.431 23.8003C213.027 23.6418 213.493 23.396 213.831 23.0608C214.167 22.7264 214.337 22.2776 214.337 21.7133V21.6605C214.337 20.9917 213.98 20.4635 213.266 20.0759C212.551 19.6883 211.518 19.4944 210.169 19.4944H200.703V24.0377H210.408ZM136.287 1.11003H152.897V32.4901H136.287V1.11003ZM150.695 11.253H165.936V20.8673H150.695V11.253ZM163.436 1.11003H180.165V32.4901H163.436V1.11003ZM132.299 32.4901H118.189L118.249 17.9627L118.606 16.0076L118.367 15.9543L117.415 17.6449L101.876 32.4901H87.7072V1.11003H101.757V15.6906L101.459 17.5925L101.638 17.6454L102.59 16.008L118.01 1.11045H132.299V32.4905L132.299 32.4901ZM69.3108 0.000416305C72.7636 0.000416305 75.6902 0.643402 78.0919 1.92895C80.4928 3.21532 82.3184 5.08146 83.5693 7.52861C84.8194 9.97659 85.444 12.9619 85.444 16.4829V17.2752C85.444 20.6569 84.8088 23.5711 83.5395 26.0182C82.2686 28.4666 80.4331 30.3332 78.0318 31.6187C75.6306 32.9039 72.7231 33.5473 69.3108 33.5473C66.0957 33.5473 63.3064 32.9039 60.9455 31.6187C58.5839 30.3332 56.7872 28.4221 55.5572 25.8868L56.5699 25.3586L56.391 26.6795H55.7957L56.0931 30.3773V42H39.4239V1.11003H56.1532V3.38168L55.7961 6.86857H56.3914L56.0343 7.66045H55.5576C56.3914 6.006 57.4931 4.58778 58.8621 3.40746C60.2318 2.22839 61.8189 1.36581 63.625 0.818903C65.4307 0.273659 67.3258 0 69.3112 0L69.3108 0.000416305ZM62.4035 9.87969C61.0946 9.87969 59.943 10.1359 58.9515 10.6454C57.9593 11.1565 57.2243 11.8602 56.7488 12.7585C56.2725 13.6569 56.0339 14.67 56.0339 15.7963V17.6982C56.0339 18.9313 56.2725 19.9794 56.7488 20.8416C57.2247 21.7045 57.9294 22.392 58.8621 22.9023C59.7943 23.4126 60.9758 23.668 62.4039 23.668C63.8334 23.668 64.9948 23.4122 65.8878 22.9023C66.7804 22.3916 67.4655 21.6867 67.9414 20.7883C68.4182 19.8904 68.6563 18.8078 68.6563 17.5397V15.9547C68.6563 14.7582 68.4276 13.7014 67.9717 12.7852C67.5141 11.8693 66.8102 11.1565 65.858 10.6454C64.9053 10.1355 63.7537 9.87969 62.4039 9.87969H62.4035Z" stroke="black" stroke-width="2" mask="url(#path-1-inside-1_1069_438)" />
        </g>
        <defs>
            <filter id="filter0_d_1069_438" x="0" y="0" width="328" height="50" filterUnits="userSpaceOnUse" color-interpolation-filters="sRGB">
            <feFlood flood-opacity="0" result="BackgroundImageFix" />
            <feColorMatrix in="SourceAlpha" type="matrix" values="0 0 0 0 0 0 0 0 0 0 0 0 0 0 0 0 0 0 127 0" result="hardAlpha" />
            <feOffset dy="4" />
            <feGaussianBlur stdDeviation="2" />
            <feComposite in2="hardAlpha" operator="out" />
            <feColorMatrix type="matrix" values="0 0 0 0 0 0 0 0 0 0 0 0 0 0 0 0 0 0 0.25 0" />
            <feBlend mode="normal" in2="BackgroundImageFix" result="effect1_dropShadow_1069_438" />
            <feBlend mode="normal" in="SourceGraphic" in2="effect1_dropShadow_1069_438" result="shape" />
            </filter>
        </defs>
    </symbol>
</svg>